<?xml version="1.0" encoding="utf-8"?>
<!-- Generator: Adobe Illustrator 25.2.3, SVG Export Plug-In . SVG Version: 6.00 Build 0)  -->
<svg version="1.0" id="Layer_1" xmlns="http://www.w3.org/2000/svg" xmlns:xlink="http://www.w3.org/1999/xlink" x="0px" y="0px"
	 viewBox="0 0 131 124.4" style="enable-background:new 0 0 131 124.4;" xml:space="preserve">
<style type="text/css">
	.st0{fill:url(#SVGID_1_);}
	.st1{fill:url(#SVGID_2_);}
	.st2{fill:url(#SVGID_3_);}
	.st3{fill:url(#SVGID_4_);}
	.st4{fill:url(#SVGID_5_);}
	.st5{fill:url(#SVGID_6_);}
	.st6{fill:url(#SVGID_7_);}
</style>
<g>
	<linearGradient id="SVGID_1_" gradientUnits="userSpaceOnUse" x1="16.821" y1="124.2653" x2="19.6902" y2="37.37">
		<stop  offset="0" style="stop-color:#17E29D"/>
		<stop  offset="1" style="stop-color:#0E1444"/>
	</linearGradient>
	<path class="st0" d="M17.5,36.2h3.3v5.9h-3.3V36.2z M17.5,45.2h3.3v25.5h-3.3V45.2z"/>
	<linearGradient id="SVGID_2_" gradientUnits="userSpaceOnUse" x1="35.8828" y1="124.8947" x2="38.752" y2="37.9994">
		<stop  offset="0" style="stop-color:#17E29D"/>
		<stop  offset="1" style="stop-color:#0E1444"/>
	</linearGradient>
	<path class="st1" d="M26.9,45.2h3.3v3.3h0.1c1-1.5,3.5-3.9,7.8-3.9c3.1,0,5.7,0.8,8.1,3.1c1.9,1.9,3.2,4.8,3.2,9v14h-3.3v-14
		c0-3.3-1-5.6-2.4-7c-1.8-1.7-4.1-2.2-5.6-2.2c-1.4,0-3.8,0.5-5.6,2.2c-1.4,1.3-2.4,3.6-2.4,6.8v14.3h-3.3V45.2z"/>
	<linearGradient id="SVGID_3_" gradientUnits="userSpaceOnUse" x1="35.3521" y1="124.8771" x2="38.2213" y2="37.9819">
		<stop  offset="0" style="stop-color:#17E29D"/>
		<stop  offset="1" style="stop-color:#0E1444"/>
	</linearGradient>
	<path class="st2" d="M20.8,83.8c1.4-2.3,4-3.6,7-3.6c3.7,0,6.8,1.8,8.6,4.9c2-3.2,4.9-4.9,8.6-4.9c6,0,10.2,4.2,10.2,11v15.2h-3.3
		V91.6c0-5.5-2.6-8.4-7-8.4s-7,3-7,8.4v14.8h-3.3V91.6c0-5.5-2.6-8.4-7-8.4s-7,3-7,8.4v14.8h-3.3V80.9h3.3V83.8z"/>
	<linearGradient id="SVGID_4_" gradientUnits="userSpaceOnUse" x1="72.3264" y1="126.098" x2="75.1956" y2="39.2027">
		<stop  offset="0" style="stop-color:#17E29D"/>
		<stop  offset="1" style="stop-color:#0E1444"/>
	</linearGradient>
	<path class="st3" d="M63.4,94.8c0.2,5,4.9,9.2,9.9,9.2c4.7-0.1,8-2.8,9.1-6h3.5c-1.8,5.1-6.7,9-12.6,9c-7.1,0-13.3-5.8-13.3-13.3
		c0-7.2,5.8-13.3,13.3-13.4c5.6,0,9.6,3.4,11.4,6.5c1.5,2.4,2,4.9,2,7.1c0,0.3,0,0.6,0,0.9H63.4z M83.4,91.9c-1-6-5.9-8.7-10-8.7
		c-4,0-9,2.7-9.9,8.7H83.4z"/>
	<linearGradient id="SVGID_5_" gradientUnits="userSpaceOnUse" x1="103.0849" y1="127.1136" x2="105.9541" y2="40.2183">
		<stop  offset="0" style="stop-color:#17E29D"/>
		<stop  offset="1" style="stop-color:#0E1444"/>
	</linearGradient>
	<path class="st4" d="M117.5,106.4h-3.3v-4.5h-0.1c-2.7,4.1-7.2,5.1-9.9,5.1c-8,0-13.7-6.1-13.7-13.4c0-6.8,5.4-13.3,13.7-13.3
		c2.8,0,7.2,1,9.9,5h0.1V73.6h3.3V106.4z M104.2,104.1c5.5,0,10.2-4.4,10.2-10.4c0-5.6-4.3-10.5-10.2-10.5
		c-5.6,0-10.5,4.1-10.5,10.5C93.7,99.4,97.9,104.1,104.2,104.1z"/>
	<linearGradient id="SVGID_6_" gradientUnits="userSpaceOnUse" x1="83.3246" y1="126.4611" x2="86.1938" y2="39.5659">
		<stop  offset="0" style="stop-color:#17E29D"/>
		<stop  offset="1" style="stop-color:#0E1444"/>
	</linearGradient>
	<path class="st5" d="M108,53.3c-5.1,0-9.2,4.1-9.2,9.2c0,2,0.6,3.8,1.7,5.3c-7.2,5.8-14.4,4.8-23.7-3.3c8.8-8,15.3-19,17.8-26.6
		c2-6.1,0.2-12.9-4.6-16.8c-0.3-0.2-0.5-0.4-0.8-0.6l-0.2-0.1c-2.7-1.9-5.9-3-9.2-3c-3.2,0-6.4,1-9,2.8c-4.1,2.9-6.6,7.5-6.7,12.5
		l-4.5,4.5c-2.3,2.3-3,5.8-1.8,8.8c-0.4,0.5-0.6,1.1-0.6,1.7c0,1.6,1.3,2.8,2.8,2.8s2.8-1.3,2.8-2.8s-1.3-2.8-2.8-2.8
		c0,0-0.1,0-0.1,0c-0.8-2.1-0.3-4.4,1.3-6l4.2-4.2l4.2,4.2c1.6,1.6,2.1,4.1,1.3,6.2c-0.2,0-0.4-0.1-0.6-0.1c-1.6,0-2.8,1.3-2.8,2.8
		c0,1.6,1.3,2.8,2.8,2.8s2.8-1.3,2.8-2.8c0-0.5-0.1-0.9-0.3-1.3c1.6-3.2,1-7-1.5-9.5l-4.4-4.4c0.1-4,2.2-7.8,5.5-10.1
		c2.2-1.5,4.7-2.3,7.4-2.3c2.7,0,5.3,0.8,7.5,2.4l0.2,0.1c0.2,0.1,0.4,0.3,0.6,0.5c3.9,3.2,5.3,8.6,3.7,13.6
		c-2.4,7.3-8.6,17.9-17.2,25.6c-0.4-0.3-0.7-0.7-1.1-1c-3.8-3.8-9-3.9-13.8-0.4c-4.1,3-7.5,8.6-5.9,11.8c0.4,0.8,1.4,1.9,3.5,1.9
		c0.9,0,1.9-0.2,3.2-0.6c4.8-1.6,9.5-4.2,13.9-7.8l0,0l0,0c6.9,6.2,17,12.4,28,3.5c1.5,1.2,3.4,1.8,5.5,1.8c5.1,0,9.2-4.1,9.2-9.2
		C117.2,57.4,113.1,53.3,108,53.3z M60.4,47.7c0,0.2-0.2,0.4-0.4,0.4s-0.4-0.2-0.4-0.4s0.2-0.4,0.4-0.4S60.4,47.4,60.4,47.7z
		 M70.2,48.3c-0.2,0-0.4-0.2-0.4-0.4c0-0.2,0.2-0.4,0.4-0.4s0.4,0.2,0.4,0.4C70.7,48.1,70.5,48.3,70.2,48.3z M59.7,71.4
		c-2,0.7-3.1,0.5-3.3,0.2c-0.6-1.1,1.2-5.3,5-8.1c1.2-0.9,3.2-2,5.3-2c1.5,0,3.2,0.5,4.7,2.1c0.3,0.3,0.6,0.6,0.9,0.8
		C68.3,67.6,64,69.9,59.7,71.4z M108,69.3c-3.8,0-6.8-3.1-6.8-6.8c0-3.8,3.1-6.8,6.8-6.8c3.8,0,6.8,3.1,6.8,6.8
		C114.8,66.2,111.7,69.3,108,69.3z"/>
	<linearGradient id="SVGID_7_" gradientUnits="userSpaceOnUse" x1="105.8439" y1="127.2047" x2="108.7131" y2="40.3094">
		<stop  offset="0" style="stop-color:#17E29D"/>
		<stop  offset="1" style="stop-color:#0E1444"/>
	</linearGradient>
	<path class="st6" d="M108,56.7c-3.2,0-5.7,2.6-5.7,5.7s2.6,5.7,5.7,5.7s5.7-2.6,5.7-5.7S111.1,56.7,108,56.7z M108,65.8
		c-1.8,0-3.3-1.5-3.3-3.3s1.5-3.3,3.3-3.3s3.3,1.5,3.3,3.3S109.8,65.8,108,65.8z"/>
</g>
</svg>
